<svg aria-hidden="true" style="position: absolute; width: 0; height: 0; overflow: hidden;" version="1.1" xmlns="http://www.w3.org/2000/svg" xmlns:xlink="http://www.w3.org/1999/xlink">
    <defs>
        <symbol id="archive" viewBox="0 0 24 24" >
            <path d="M20.25 5.8125H3.75C3.3703 5.8125 3.0625 6.1203 3.0625 6.5V8.5625C3.0625 8.9422 3.3703 9.25 3.75 9.25H20.25C20.6297 9.25 20.9375 8.9422 20.9375 8.5625V6.5C20.9375 6.1203 20.6297 5.8125 20.25 5.8125Z" />
            <path d="M19.5625 9.25V17.5C19.5625 17.6823 19.4901 17.8572 19.3611 17.9861C19.2322 18.1151 19.0573 18.1875 18.875 18.1875H5.125C4.94266 18.1875 4.7678 18.1151 4.63886 17.9861C4.50993 17.8572 4.4375 17.6823 4.4375 17.5V9.25" />
            <path d="M9.9375 12.6875H14.0625"/>
        </symbol>

        <symbol id="arrow-left" viewBox="0 0 24 24" >
            <path d="M19.5625 12H4.4375" />
            <path d="M10.625 5.8125L4.4375 12L10.625 18.1875" />
        </symbol>

        <symbol id="bell" viewBox="0 0 24 24" >
            <path d="M5.82999 9.93745C5.82886 9.12208 5.98911 8.31455 6.30152 7.56141C6.61393 6.80826 7.07231 6.1244 7.65025 5.54923C8.22819 4.97407 8.91425 4.51898 9.66889 4.2102C10.4235 3.90142 11.2318 3.74506 12.0472 3.75012C15.4494 3.77541 18.1708 6.60336 18.1708 10.0151V10.6249C18.1708 13.7029 18.8147 15.4889 19.3819 16.4651C19.443 16.5694 19.4755 16.688 19.4761 16.8089C19.4768 16.9297 19.4456 17.0487 19.3856 17.1536C19.3256 17.2586 19.239 17.3458 19.1345 17.4067C19.0301 17.4675 18.9114 17.4996 18.7905 17.4999H5.20958C5.08868 17.4996 4.97001 17.4674 4.86552 17.4066C4.76104 17.3458 4.67444 17.2585 4.61447 17.1535C4.5545 17.0486 4.52327 16.9296 4.52394 16.8087C4.5246 16.6878 4.55714 16.5693 4.61827 16.465C5.18574 15.4887 5.82999 13.7027 5.82999 10.6249L5.82999 9.93745Z" />
            <path d="M9.25 17.5V18.1875C9.25 18.9168 9.53973 19.6163 10.0555 20.132C10.5712 20.6478 11.2707 20.9375 12 20.9375C12.7293 20.9375 13.4288 20.6478 13.9445 20.132C14.4603 19.6163 14.75 18.9168 14.75 18.1875V17.5" />
        </symbol>

        <symbol id="browsers" viewBox="0 0 24 24" >
            <path d="M16.813 7.875H4.43799C4.05829 7.875 3.75049 8.1828 3.75049 8.5625V18.1875C3.75049 18.5672 4.05829 18.875 4.43799 18.875H16.813C17.1927 18.875 17.5005 18.5672 17.5005 18.1875V8.5625C17.5005 8.1828 17.1927 7.875 16.813 7.875Z" />
            <path d="M6.50049 7.875V5.8125C6.50049 5.63016 6.57292 5.4553 6.70185 5.32636C6.83078 5.19743 7.00565 5.125 7.18799 5.125H19.563C19.7453 5.125 19.9202 5.19743 20.0491 5.32636C20.1781 5.4553 20.2505 5.63016 20.2505 5.8125V15.4375C20.2505 15.6198 20.1781 15.7947 20.0491 15.9236C19.9202 16.0526 19.7453 16.125 19.563 16.125H17.5005" />
            <path d="M3.75 10.625H17.5" />
        </symbol>

        <symbol id="buildings" viewBox="0 0 24 24" >
            <path d="M2.375 19.5608H21.625" />
            <path d="M13.3745 19.5608V4.43579C13.3745 4.25345 13.3021 4.07859 13.1731 3.94966C13.0442 3.82072 12.8693 3.74829 12.687 3.74829H4.43701C4.25468 3.74829 4.07981 3.82072 3.95088 3.94966C3.82194 4.07859 3.74951 4.25345 3.74951 4.43579V19.5608" />
            <path d="M20.2495 19.5608V9.93579C20.2495 9.75345 20.1771 9.57859 20.0481 9.44966C19.9192 9.32072 19.7443 9.24829 19.562 9.24829H13.3745" />
            <path d="M6.49951 7.18579H9.24951" />
            <path d="M7.87451 12.6858H10.6245" />
            <path d="M6.49951 16.1233H9.24951" />
            <path d="M16.1245 16.1233H17.4995" />
            <path d="M16.1245 12.6858H17.4995" />
        </symbol>

        <symbol id="camera" viewBox="0 0 24 24" >
            <path d="M18.875 18.875H5.125C4.76033 18.875 4.41059 18.7301 4.15273 18.4723C3.89487 18.2144 3.75 17.8647 3.75 17.5V7.875C3.75 7.51033 3.89487 7.16059 4.15273 6.90273C4.41059 6.64487 4.76033 6.5 5.125 6.5H7.8745L9.2495 4.4375H14.7495L16.1245 6.5H18.875C19.2397 6.5 19.5894 6.64487 19.8473 6.90273C20.1051 7.16059 20.25 7.51033 20.25 7.875V17.5C20.25 17.8647 20.1051 18.2144 19.8473 18.4723C19.5894 18.7301 19.2397 18.875 18.875 18.875Z" />
            <path d="M12 15.4375C13.7086 15.4375 15.0938 14.0524 15.0938 12.3438C15.0938 10.6351 13.7086 9.25 12 9.25C10.2914 9.25 8.90625 10.6351 8.90625 12.3438C8.90625 14.0524 10.2914 15.4375 12 15.4375Z" />
        </symbol>

        <symbol id="chart" viewBox="0 0 24 24" >
            <path d="M20.25 18.875H3.75V5.125" />
            <path d="M20.25 9.25L14.75 14.0625L9.25 9.9375L3.75 14.75" />
        </symbol>

        <symbol id="check" viewBox="0 0 24 24" >
            <path d="M19.5625 7.18799L9.9375 16.8126L5.125 12.0005" />
        </symbol>

        <symbol id="chevron" viewBox="0 0 24 24" >
            <path d="M4,8 L12,16 L20,8" />
        </symbol>

        <symbol id="close" viewBox="0 0 24 24" >
            <path d="M18.1875 5.8125L5.8125 18.1875" />
            <path d="M18.1875 18.1875L5.8125 5.8125" />
        </symbol>

        <symbol id="cloud-arrow-up" viewBox="0 0 24 24" >
            <path d="M9.24996 18.8735H7.18746C6.50498 18.8729 5.83044 18.7271 5.20862 18.4458C4.5868 18.1645 4.03192 17.7541 3.58082 17.242C3.12971 16.7299 2.79269 16.1276 2.59213 15.4753C2.39157 14.8229 2.33206 14.1354 2.41754 13.4583C2.50302 12.7812 2.73154 12.13 3.08793 11.5479C3.44433 10.9659 3.92044 10.4663 4.48468 10.0824C5.04891 9.69841 5.68836 9.43885 6.36058 9.32092C7.0328 9.203 7.72241 9.22939 8.38365 9.39837" />
            <path d="M7.875 11.9988C7.87511 10.9095 8.13406 9.83583 8.63051 8.86622C9.12697 7.89662 9.84672 7.05886 10.7305 6.42198C11.6142 5.7851 12.6366 5.36733 13.7135 5.2031C14.7903 5.03887 15.8908 5.13287 16.9242 5.47737C17.9576 5.82186 18.8944 6.40699 19.6573 7.18453C20.4202 7.96207 20.9874 8.90976 21.3123 9.94952C21.6371 10.9893 21.7102 12.0913 21.5255 13.1649C21.3409 14.2384 20.9038 15.2528 20.2502 16.1242" />
            <path d="M11.1458 14.9154L14.0626 11.9985L16.9794 14.9154" />
            <path d="M14.0625 18.8735V11.9985" />
        </symbol>

        <symbol id="copy" viewBox="0 0 24 24">
            <path d="M15.4375 15.437H19.5625V4.43701H8.5625V8.56201" />
            <path d="M15.4375 8.56201H4.4375V19.562H15.4375V8.56201Z" />
        </symbol>

        <symbol id="" viewBox="0 0 24 24">
        </symbol>

        <symbol id="credit-card" viewBox="0 0 24 24">
            <path d="M20.25 5.8125H3.75C3.3703 5.8125 3.0625 6.1203 3.0625 6.5V17.5C3.0625 17.8797 3.3703 18.1875 3.75 18.1875H20.25C20.6297 18.1875 20.9375 17.8797 20.9375 17.5V6.5C20.9375 6.1203 20.6297 5.8125 20.25 5.8125Z" />
            <path d="M15.437 15.4375H18.187" />
            <path d="M11.312 15.4375H12.687" />
            <path d="M3.06201 9.32324H20.937" />
        </symbol>

        <symbol id="crosshair" viewBox="0 0 24 24">
            <path d="M12 19.9062C16.3665 19.9062 19.9062 16.3665 19.9062 12C19.9062 7.6335 16.3665 4.09375 12 4.09375C7.6335 4.09375 4.09375 7.6335 4.09375 12C4.09375 16.3665 7.6335 19.9062 12 19.9062Z" />
            <path d="M12 4.09375V7.53125" />
            <path d="M4.09375 12H7.53125" />
            <path d="M12 19.9062V16.4688" />
            <path d="M19.9062 12H16.4688" />
        </symbol>

        <symbol id="device-mobile" viewBox="0 0 24 24">
            <path d="M16.125 3.0625H7.875C7.11561 3.0625 6.5 3.67811 6.5 4.4375V19.5625C6.5 20.3219 7.11561 20.9375 7.875 20.9375H16.125C16.8844 20.9375 17.5 20.3219 17.5 19.5625V4.4375C17.5 3.67811 16.8844 3.0625 16.125 3.0625Z" />
            <path d="M6.5 5.8125H17.5" />
            <path d="M6.5 18.1875H17.5" />
        </symbol>

        <symbol id="dots-six" viewBox="0 0 24 24">
            <path d="M8.90625 7.1875C9.47579 7.1875 9.9375 6.72579 9.9375 6.15625C9.9375 5.58671 9.47579 5.125 8.90625 5.125C8.33671 5.125 7.875 5.58671 7.875 6.15625C7.875 6.72579 8.33671 7.1875 8.90625 7.1875Z" />
            <path d="M15.0938 7.1875C15.6633 7.1875 16.125 6.72579 16.125 6.15625C16.125 5.58671 15.6633 5.125 15.0938 5.125C14.5242 5.125 14.0625 5.58671 14.0625 6.15625C14.0625 6.72579 14.5242 7.1875 15.0938 7.1875Z" />
            <path d="M8.90625 13.0312C9.47579 13.0312 9.9375 12.5695 9.9375 12C9.9375 11.4305 9.47579 10.9688 8.90625 10.9688C8.33671 10.9688 7.875 11.4305 7.875 12C7.875 12.5695 8.33671 13.0312 8.90625 13.0312Z" />
            <path d="M15.0938 13.0312C15.6633 13.0312 16.125 12.5695 16.125 12C16.125 11.4305 15.6633 10.9688 15.0938 10.9688C14.5242 10.9688 14.0625 11.4305 14.0625 12C14.0625 12.5695 14.5242 13.0312 15.0938 13.0312Z" />
            <path d="M8.90625 18.875C9.47579 18.875 9.9375 18.4133 9.9375 17.8438C9.9375 17.2742 9.47579 16.8125 8.90625 16.8125C8.33671 16.8125 7.875 17.2742 7.875 17.8438C7.875 18.4133 8.33671 18.875 8.90625 18.875Z" />
            <path d="M15.0938 18.875C15.6633 18.875 16.125 18.4133 16.125 17.8438C16.125 17.2742 15.6633 16.8125 15.0938 16.8125C14.5242 16.8125 14.0625 17.2742 14.0625 17.8438C14.0625 18.4133 14.5242 18.875 15.0938 18.875Z" />
        </symbol>

        <symbol id="dots-three" viewBox="0 0 24 24">
            <path d="M12 13.0312C12.5695 13.0312 13.0312 12.5695 13.0312 12C13.0312 11.4305 12.5695 10.9688 12 10.9688C11.4305 10.9688 10.9688 11.4305 10.9688 12C10.9688 12.5695 11.4305 13.0312 12 13.0312Z" />
            <path d="M12 7.53125C12.5695 7.53125 13.0312 7.06954 13.0312 6.5C13.0312 5.93046 12.5695 5.46875 12 5.46875C11.4305 5.46875 10.9688 5.93046 10.9688 6.5C10.9688 7.06954 11.4305 7.53125 12 7.53125Z" />
            <path d="M12 18.5312C12.5695 18.5312 13.0312 18.0695 13.0312 17.5C13.0312 16.9305 12.5695 16.4688 12 16.4688C11.4305 16.4688 10.9688 16.9305 10.9688 17.5C10.9688 18.0695 11.4305 18.5312 12 18.5312Z" />
        </symbol>

        <symbol id="download" viewBox="0 0 24 24">
            <path d="M8.39062 10.4539L12 14.0623L15.6094 10.4539" />
            <path d="M12 4.4375V14.06" />
            <path d="M19.5625 14.0625V18.875C19.5625 19.0573 19.4901 19.2322 19.3611 19.3611C19.2322 19.4901 19.0573 19.5625 18.875 19.5625H5.125C4.94266 19.5625 4.7678 19.4901 4.63886 19.3611C4.50993 19.2322 4.4375 19.0573 4.4375 18.875V14.0625" />
        </symbol>

        <symbol id="dropper" viewBox="0 0 24 24">
            <path d="M16.4514 10.9517L16.8714 11.3717C16.9991 11.4994 17.1003 11.651 17.1694 11.8178C17.2385 11.9846 17.2741 12.1634 17.2741 12.344C17.2741 12.5245 17.2385 12.7033 17.1694 12.8702C17.1003 13.037 16.9991 13.1886 16.8714 13.3163L16.2673 13.9203C16.1384 14.0493 15.9635 14.1217 15.7811 14.1217C15.5988 14.1217 15.4239 14.0493 15.295 13.9203L10.0798 8.70511C9.95085 8.57618 9.87842 8.40132 9.87842 8.21898C9.87842 8.03664 9.95085 7.86177 10.0798 7.73284L10.6839 7.12875C10.8116 7.00107 10.9631 6.89979 11.13 6.83069C11.2968 6.76159 11.4756 6.72602 11.6561 6.72602C11.8367 6.72602 12.0155 6.76159 12.1823 6.83069C12.3492 6.89979 12.5007 7.00107 12.6284 7.12875L13.0484 7.54875L15.4193 5.1779C16.3464 4.25079 17.857 4.19399 18.8091 5.09534C19.0429 5.31633 19.23 5.58194 19.3593 5.87648C19.4887 6.17102 19.5576 6.48851 19.5622 6.81016C19.5667 7.13181 19.5067 7.45111 19.3856 7.74916C19.2646 8.04722 19.0851 8.31799 18.8576 8.54546L16.4514 10.9517Z" />
            <path d="M14.6327 13.257L9.82019 18.0695C9.47895 18.411 9.05377 18.6567 8.58743 18.7817C8.1211 18.9067 7.63007 18.9067 7.16373 18.7817L5.1526 19.6597C5.02595 19.7149 4.88558 19.7308 4.7498 19.7051C4.61401 19.6794 4.48912 19.6134 4.3914 19.5157V19.5157C4.32124 19.4456 4.27386 19.3559 4.25542 19.2584C4.23699 19.1609 4.24836 19.0601 4.28806 18.9692L5.21893 16.8369C5.0939 16.3706 5.09389 15.8795 5.21891 15.4132C5.34393 14.9469 5.58957 14.5217 5.93111 14.1804L10.7436 9.36792" />
        </symbol>

        <symbol id="envelope" viewBox="0 0 24 24">
            <path d="M3.75 9.25V18.1875C3.75 18.3698 3.82243 18.5447 3.95136 18.6736C4.0803 18.8026 4.25516 18.875 4.4375 18.875H19.5625C19.7448 18.875 19.9197 18.8026 20.0486 18.6736C20.1776 18.5447 20.25 18.3698 20.25 18.1875V9.25L12 3.75L3.75 9.25Z" />
            <path d="M10.5002 14.0625L3.96216 18.6807" />
            <path d="M20.0381 18.6807L13.5 14.0625" />
            <path d="M20.25 9.25L13.5 14.0625H10.5L3.75 9.25" />
        </symbol>

        <symbol id="eye" viewBox="0 0 24 24">
            <path d="M12 5.81201C5.125 5.81201 2.375 12.0002 2.375 12.0002C2.375 12.0002 5.125 18.187 12 18.187C18.875 18.187 21.625 12.0002 21.625 12.0002C21.625 12.0002 18.875 5.81201 12 5.81201Z" />
            <path d="M12 15.4375C13.8985 15.4375 15.4375 13.8985 15.4375 12C15.4375 10.1015 13.8985 8.5625 12 8.5625C10.1015 8.5625 8.5625 10.1015 8.5625 12C8.5625 13.8985 10.1015 15.4375 12 15.4375Z" />
        </symbol>

        <symbol id="eye-off" viewBox="0 0 24 24">
            <path d="M5.125 4.4375L18.875 19.5625" />
            <path d="M14.3121 14.5437C13.6375 15.1568 12.747 15.4769 11.8364 15.4335C10.9258 15.3901 10.0697 14.9868 9.45647 14.3122C8.84323 13.6377 8.52307 12.7471 8.56639 11.8365C8.60971 10.9259 9.01297 10.0698 9.68747 9.45654" />
            <path d="M7.3589 6.89478C3.85529 8.669 2.375 12 2.375 12C2.375 12 5.125 18.1868 12 18.1868C13.6108 18.1997 15.2015 17.8287 16.6404 17.1045" />
            <path d="M18.9269 15.5322C20.8005 13.8541 21.6245 12.0002 21.6245 12.0002C21.6245 12.0002 18.8745 5.81203 11.9995 5.81203C11.4041 5.81105 10.8096 5.85946 10.2222 5.95676" />
            <path d="M12.6472 8.62354C13.3778 8.76383 14.0433 9.13723 14.5437 9.68773C15.0441 10.2382 15.3526 10.9361 15.4228 11.6768" />
        </symbol>

        <symbol id="film-strip" viewBox="0 0 24 24">
            <path d="M19.5625 5.125H4.4375C4.0578 5.125 3.75 5.4328 3.75 5.8125V18.1875C3.75 18.5672 4.0578 18.875 4.4375 18.875H19.5625C19.9422 18.875 20.25 18.5672 20.25 18.1875V5.8125C20.25 5.4328 19.9422 5.125 19.5625 5.125Z" />
            <path d="M18.5312 7.875H20.25" />
            <path d="M18.5312 16.125H20.25" />
            <path d="M3.75 7.875H5.46875" />
            <path d="M3.75 16.125H5.46875" />
            <path d="M8.90625 7.875H10.2812" />
            <path d="M8.90625 16.125H10.2812" />
            <path d="M13.7188 7.875H15.0938" />
            <path d="M13.7188 16.125H15.0938" />
        </symbol>

        <symbol id="floppy-disk" viewBox="0 0 24 24">
            <path d="M4.4375 8.84727V18.875C4.4375 19.0573 4.50993 19.2322 4.63886 19.3611C4.7678 19.4901 4.94266 19.5625 5.125 19.5625H18.875C19.0573 19.5625 19.2322 19.4901 19.3611 19.3611C19.4901 19.2322 19.5625 19.0573 19.5625 18.875V5.125C19.5625 4.94266 19.4901 4.7678 19.3611 4.63886C19.2322 4.50993 19.0573 4.4375 18.875 4.4375H8.84727C8.75699 4.4375 8.66759 4.45528 8.58418 4.48983C8.50077 4.52438 8.42498 4.57502 8.36114 4.63886L4.63886 8.36114C4.57502 8.42498 4.52438 8.50077 4.48983 8.58418C4.45528 8.66759 4.4375 8.75699 4.4375 8.84727V8.84727Z" />
            <path d="M12.0005 16.1257C13.3294 16.1257 14.4067 15.0484 14.4067 13.7195C14.4067 12.3905 13.3294 11.3132 12.0005 11.3132C10.6716 11.3132 9.59424 12.3905 9.59424 13.7195C9.59424 15.0484 10.6716 16.1257 12.0005 16.1257Z" />
            <path d="M9.25 7.87573H14.75V4.43823" />
        </symbol>

        <symbol id="folder-open" viewBox="0 0 24 24">
            <path d="M3.75 18.875V6.5C3.75 6.31766 3.82243 6.1428 3.95136 6.01386C4.0803 5.88493 4.25516 5.8125 4.4375 5.8125H9.02083C9.16959 5.8125 9.31433 5.86075 9.43333 5.95L11.8167 7.7375C11.9357 7.82675 12.0804 7.875 12.2292 7.875H18.1875C18.3698 7.875 18.5447 7.94743 18.6736 8.07636C18.8026 8.2053 18.875 8.38016 18.875 8.5625V10.625" />
            <path d="M3.75 18.875L6.32713 12.4322C6.37816 12.3046 6.46625 12.1952 6.58003 12.1182C6.69381 12.0412 6.82806 12 6.96546 12H11.1043C11.2401 12 11.3728 11.9598 11.4857 11.8845L13.2018 10.7405C13.3147 10.6652 13.4474 10.625 13.5832 10.625H20.6711C20.7801 10.625 20.8875 10.6509 20.9844 10.7005C21.0814 10.7502 21.1652 10.8221 21.2289 10.9105C21.2926 10.9989 21.3344 11.1011 21.3508 11.2088C21.3672 11.3165 21.3578 11.4266 21.3234 11.5299L18.875 18.875H3.75Z" />
        </symbol>

        <symbol id="folder-plus" viewBox="0 0 24 24">
            <path d="M12 7.875H19.5625C19.7448 7.875 19.9197 7.94743 20.0486 8.07636C20.1776 8.2053 20.25 8.38016 20.25 8.5625V18.1875C20.25 18.3698 20.1776 18.5447 20.0486 18.6736C19.9197 18.8026 19.7448 18.875 19.5625 18.875H4.4375C4.25533 18.8745 4.08077 18.8019 3.95195 18.673C3.82314 18.5442 3.75053 18.3697 3.75 18.1875V9.9375" />
            <path d="M9.02083 9.9375H3.75V6.5C3.75 6.31766 3.82243 6.1428 3.95136 6.01386C4.0803 5.88493 4.25516 5.8125 4.4375 5.8125H9.02083C9.16959 5.8125 9.31433 5.86075 9.43333 5.95L12 7.875L9.43333 9.8C9.31433 9.88925 9.16959 9.9375 9.02083 9.9375Z" />
            <path d="M9.93726 13.7188H14.0623" />
            <path d="M11.9998 11.6562V15.7812" />
        </symbol>

        <symbol id="gear" viewBox="0 0 24 24">
            <path d="M12 16.1252C14.2782 16.1252 16.125 14.2784 16.125 12.0002C16.125 9.72207 14.2782 7.87524 12 7.87524C9.72183 7.87524 7.875 9.72207 7.875 12.0002C7.875 14.2784 9.72183 16.1252 12 16.1252Z" />
            <path d="M17.9645 7.93096C18.1679 8.22951 18.3485 8.54292 18.5049 8.86854L20.7346 10.1063C21.0062 11.3537 21.0071 12.6448 20.7374 13.8925L18.5064 15.131C18.3495 15.4564 18.1684 15.7695 17.9646 16.0677L18.0075 18.6177C17.063 19.4765 15.9454 20.1229 14.7299 20.5131L12.5418 19.2003C12.1816 19.2271 11.8199 19.2268 11.4597 19.1994L9.27287 20.5115C8.05683 20.1231 6.93824 19.4783 5.99255 18.6208L6.0355 16.0695C5.83216 15.7709 5.65154 15.4575 5.49517 15.1319L3.26542 13.8941C2.99383 12.6467 2.9929 11.3557 3.26269 10.1079L5.49368 8.86943C5.65057 8.54405 5.83168 8.23093 6.03549 7.9327L5.99257 5.38278C6.93702 4.5239 8.05467 3.87754 9.27015 3.4873L11.4582 4.80017C11.8184 4.77335 12.1801 4.77363 12.5403 4.80102L14.7272 3.48889C15.9432 3.87736 17.0618 4.5221 18.0075 5.37962L17.9645 7.93096Z" />
        </symbol>

        <symbol id="globe" viewBox="0 0 24 24">
            <path d="M12 20.25C16.5563 20.25 20.25 16.5563 20.25 12C20.25 7.44365 16.5563 3.75 12 3.75C7.44365 3.75 3.75 7.44365 3.75 12C3.75 16.5563 7.44365 20.25 12 20.25Z" />
            <path d="M3.75 12H20.25" />
            <path d="M12 20.0287C13.8985 20.0287 15.4375 16.4343 15.4375 12.0002C15.4375 7.56618 13.8985 3.97168 12 3.97168C10.1015 3.97168 8.5625 7.56618 8.5625 12.0002C8.5625 16.4343 10.1015 20.0287 12 20.0287Z" />
        </symbol>

        <symbol id="image" viewBox="0 0 24 24">
            <path d="M18.875 4.4375H5.125C4.7453 4.4375 4.4375 4.7453 4.4375 5.125V18.875C4.4375 19.2547 4.7453 19.5625 5.125 19.5625H18.875C19.2547 19.5625 19.5625 19.2547 19.5625 18.875V5.125C19.5625 4.7453 19.2547 4.4375 18.875 4.4375Z" />
            <path d="M19.5625 14.7501L15.9236 11.1113C15.7947 10.9823 15.6198 10.9099 15.4375 10.9099C15.2552 10.9099 15.0803 10.9823 14.9514 11.1113L11.1111 14.9515C10.9822 15.0804 10.8073 15.1529 10.625 15.1529C10.4427 15.1529 10.2678 15.0804 10.1389 14.9515L8.36113 13.1738C8.2322 13.0448 8.05733 12.9724 7.875 12.9724C7.69266 12.9724 7.51779 13.0448 7.38886 13.1738L4.4375 16.1251" />
            <path d="M9.59375 9.9375C10.1633 9.9375 10.625 9.47579 10.625 8.90625C10.625 8.33671 10.1633 7.875 9.59375 7.875C9.02421 7.875 8.5625 8.33671 8.5625 8.90625C8.5625 9.47579 9.02421 9.9375 9.59375 9.9375Z" />
        </symbol>

        <symbol id="info" viewBox="0 0 24 24">
            <path d="M12 20.25C16.5563 20.25 20.25 16.5563 20.25 12C20.25 7.44365 16.5563 3.75 12 3.75C7.44365 3.75 3.75 7.44365 3.75 12C3.75 16.5563 7.44365 20.25 12 20.25Z" />
            <path d="M11.3125 11.3125H12V16.125H12.6875" />
            <path d="M11.8281 9.25C12.3977 9.25 12.8594 8.78829 12.8594 8.21875C12.8594 7.64921 12.3977 7.1875 11.8281 7.1875C11.2586 7.1875 10.7969 7.64921 10.7969 8.21875C10.7969 8.78829 11.2586 9.25 11.8281 9.25Z" />
        </symbol>

        <symbol id="key" viewBox="0 0 24 24">
            <path d="M9.00647 11.556C8.4765 10.2341 8.4192 8.76974 8.84426 7.41045C9.26933 6.05116 10.1507 4.88033 11.3394 4.09586C12.528 3.31138 13.9511 2.96138 15.368 3.10502C16.785 3.24865 18.1089 3.87712 19.1159 4.88418C20.123 5.89124 20.7514 7.21513 20.8951 8.63206C21.0387 10.049 20.6887 11.4721 19.9042 12.6607C19.1197 13.8494 17.9489 14.7308 16.5896 15.1558C15.2303 15.5809 13.766 15.5236 12.444 14.9936L12.4441 14.9935L11.3125 16.1251H9.25V18.1876H7.1875V20.2501H3.75V16.8126L9.00662 11.5559L9.00647 11.556Z" />
            <path opacity="0.5" d="M16.4688 7.875C16.6586 7.875 16.8125 7.7211 16.8125 7.53125C16.8125 7.3414 16.6586 7.1875 16.4688 7.1875C16.2789 7.1875 16.125 7.3414 16.125 7.53125C16.125 7.7211 16.2789 7.875 16.4688 7.875Z" />
            <path d="M16.4688 8.5625C17.0383 8.5625 17.5 8.10079 17.5 7.53125C17.5 6.96171 17.0383 6.5 16.4688 6.5C15.8992 6.5 15.4375 6.96171 15.4375 7.53125C15.4375 8.10079 15.8992 8.5625 16.4688 8.5625Z" />
        </symbol>

        <symbol id="lifebuoy" viewBox="0 0 24 24">
            <path d="M12 20.25C16.5563 20.25 20.25 16.5563 20.25 12C20.25 7.44365 16.5563 3.75 12 3.75C7.44365 3.75 3.75 7.44365 3.75 12C3.75 16.5563 7.44365 20.25 12 20.25Z" />
            <path d="M12 15.4375C13.8985 15.4375 15.4375 13.8985 15.4375 12C15.4375 10.1015 13.8985 8.5625 12 8.5625C10.1015 8.5625 8.5625 10.1015 8.5625 12C8.5625 13.8985 10.1015 15.4375 12 15.4375Z" />
            <path d="M9.56946 9.56946L6.1665 6.1665" />
            <path d="M14.4307 9.56946L17.8336 6.1665" />
            <path d="M14.4307 14.4307L17.8336 17.8336" />
            <path d="M9.56946 14.4307L6.1665 17.8336" />
        </symbol>

        <symbol id="link" viewBox="0 0 24 24">
            <path d="M11.5139 7.13859L13.2153 5.43712C13.5664 5.08573 13.9833 4.80695 14.4421 4.61671C14.9009 4.42646 15.3928 4.32848 15.8895 4.32837C16.3862 4.32825 16.878 4.426 17.337 4.61603C17.7959 4.80606 18.2129 5.08465 18.5641 5.43587C18.9153 5.7871 19.1939 6.20408 19.3839 6.663C19.574 7.12193 19.6717 7.61379 19.6716 8.1105C19.6715 8.60721 19.5735 9.09903 19.3833 9.55786C19.193 10.0167 18.9142 10.4335 18.5628 10.7846L16.1322 13.2153C15.781 13.5664 15.3642 13.8449 14.9054 14.035C14.4467 14.225 13.955 14.3228 13.4584 14.3228C12.9619 14.3228 12.4702 14.225 12.0114 14.035C11.5526 13.8449 11.1358 13.5664 10.7847 13.2153" />
            <path d="M12.4861 16.8614L10.7846 18.5629C10.4335 18.9143 10.0167 19.1931 9.55786 19.3833C9.09903 19.5736 8.60721 19.6716 8.1105 19.6717C7.61379 19.6718 7.12193 19.574 6.663 19.384C6.20408 19.194 5.7871 18.9154 5.43587 18.5642C5.08465 18.2129 4.80606 17.796 4.61603 17.337C4.426 16.8781 4.32825 16.3862 4.32837 15.8895C4.32848 15.3928 4.42646 14.901 4.61671 14.4422C4.80695 13.9833 5.08573 13.5665 5.43712 13.2154L7.8678 10.7847C8.21892 10.4336 8.63576 10.1551 9.09452 9.96508C9.55328 9.77505 10.045 9.67725 10.5415 9.67725C11.0381 9.67725 11.5298 9.77505 11.9886 9.96508C12.4473 10.1551 12.8642 10.4336 13.2153 10.7847" />
        </symbol>

        <symbol id="list-plus" viewBox="0 0 24 24">
            <path d="M4.4375 6.5H19.5625" />
            <path d="M4.4375 12H19.5625" />
            <path d="M4.4375 17.5H13.375" />
            <path d="M16.8125 17.5H20.9375" />
            <path d="M18.875 15.4375V19.5625" />
        </symbol>

        <symbol id="" viewBox="0 0 24 24">
        </symbol>

        <symbol id="magnifier" viewBox="0 0 24 24">
            <path d="M13.0312 18.1875C9.04444 18.1875 5.8125 14.9556 5.8125 10.9688C5.8125 6.98194 9.04444 3.75 13.0312 3.75C17.0181 3.75 20.25 6.98194 20.25 10.9688C20.25 14.9556 17.0181 18.1875 13.0312 18.1875Z" />
            <path d="M7.927 16.0735L3.75039 20.2501" />
        </symbol>

        <symbol id="megaphone" viewBox="0 0 24 24">
            <path d="M3.74951 5.354V17.2707C3.74951 17.3774 3.77436 17.4827 3.82209 17.5781C3.86982 17.6736 3.93913 17.7566 4.02451 17.8207C4.1099 17.8847 4.20902 17.928 4.31403 17.9471C4.41904 17.9662 4.52705 17.9606 4.62951 17.9307L19.7545 13.5192C19.8973 13.4776 20.0228 13.3907 20.112 13.2717C20.2013 13.1527 20.2495 13.008 20.2495 12.8592V9.76546C20.2495 9.61671 20.2013 9.47196 20.112 9.35296C20.0228 9.23396 19.8973 9.14711 19.7545 9.10546L4.62951 4.694C4.52705 4.66412 4.41904 4.6585 4.31403 4.67759C4.20902 4.69669 4.1099 4.73997 4.02451 4.804C3.93913 4.86804 3.86982 4.95108 3.82209 5.04654C3.77436 5.14201 3.74951 5.24727 3.74951 5.354V5.354Z" />
            <path d="M16.8125 14.3775V17.5C16.8125 17.6824 16.7401 17.8572 16.6111 17.9862C16.4822 18.1151 16.3073 18.1875 16.125 18.1875H13.375C13.1927 18.1875 13.0178 18.1151 12.8889 17.9862C12.7599 17.8572 12.6875 17.6824 12.6875 17.5V7.04443" />
        </symbol>

        <symbol id="menu" viewBox="0 0 24 24">
            <path d="M4.4375 6.5H19.5625" />
            <path d="M4.4375 12H19.5625" />
            <path d="M4.4375 17.5H19.5625" />
        </symbol>

        <symbol id="paint-roller" viewBox="0 0 24 24">
            <path d="M18.1875 5.8125H5.125C4.7453 5.8125 4.4375 6.1203 4.4375 6.5V12C4.4375 12.3797 4.7453 12.6875 5.125 12.6875H18.1875C18.5672 12.6875 18.875 12.3797 18.875 12V6.5C18.875 6.1203 18.5672 5.8125 18.1875 5.8125Z" />
            <path d="M18.875 9.25H20.9375C21.1198 9.25 21.2947 9.32243 21.4236 9.45136C21.5526 9.5803 21.625 9.75516 21.625 9.9375V14.2314C21.625 14.3808 21.5763 14.5262 21.4864 14.6454C21.3964 14.7647 21.27 14.8514 21.1264 14.8925L12.4986 17.3575C12.355 17.3986 12.2286 17.4853 12.1386 17.6046C12.0487 17.7238 12 17.8692 12 18.0186V20.9375" />
            <path d="M4.4375 9.25H2.375" />
        </symbol>

        <symbol id="paper-plane" viewBox="0 0 24 24">
            <path d="M19.0683 4.08343L3.0558 8.59979C2.92109 8.63779 2.80119 8.71599 2.71212 8.82396C2.62304 8.93192 2.56905 9.0645 2.55734 9.20398C2.54563 9.34345 2.57678 9.48318 2.64661 9.60448C2.71644 9.72578 2.82163 9.82288 2.94812 9.8828L10.3053 13.3678C10.4488 13.4357 10.5643 13.5513 10.6323 13.6948L14.1173 21.052C14.1772 21.1785 14.2743 21.2836 14.3956 21.3535C14.5169 21.4233 14.6566 21.4545 14.7961 21.4427C14.9356 21.431 15.0682 21.377 15.1761 21.288C15.2841 21.1989 15.3623 21.079 15.4003 20.9443L19.9167 4.93175C19.9498 4.81413 19.9511 4.68979 19.9202 4.57154C19.8893 4.45329 19.8275 4.3454 19.7411 4.25898C19.6547 4.17257 19.5468 4.11075 19.4286 4.07989C19.3103 4.04904 19.186 4.05026 19.0683 4.08343Z" />
            <path d="M10.5269 13.4726L14.4159 9.5835" />
        </symbol>

        <symbol id="pencil-line" viewBox="0 0 24 24">
            <path d="M9.25 19.5624H5.125C4.94266 19.5624 4.7678 19.49 4.63886 19.361C4.50993 19.2321 4.4375 19.0572 4.4375 18.8749V15.0347C4.4375 14.9444 4.45528 14.855 4.48983 14.7716C4.52438 14.6882 4.57502 14.6124 4.63886 14.5485L14.9514 4.23603C15.0803 4.1071 15.2552 4.03467 15.4375 4.03467C15.6198 4.03467 15.7947 4.1071 15.9236 4.23603L19.7639 8.07626C19.8928 8.20519 19.9652 8.38006 19.9652 8.5624C19.9652 8.74473 19.8928 8.9196 19.7639 9.04853L9.25 19.5624Z" />
            <path d="M12.6875 6.5L17.5 11.3125" />
            <path d="M19.5625 19.5625H9.24996L4.4812 14.7937" />
        </symbol>

        <symbol id="plus" viewBox="0 0 24 24">
            <path d="M4.4375 12H19.5625" />
            <path d="M12 4.4375V19.5625" />
        </symbol>

        <symbol id="queue" viewBox="0 0 24 24">
            <path d="M4.4375 6.5H19.5625" />
            <path d="M4.4375 12H12.6875" />
            <path d="M4.4375 17.5H12.6875" />
            <path d="M21.625 14.75L16.125 18.1875V11.3125L21.625 14.75Z" />
        </symbol>

        <symbol id="rows" viewBox="0 0 24 24">
            <path d="M18.875 13.375H5.125C4.7453 13.375 4.4375 13.6828 4.4375 14.0625V17.5C4.4375 17.8797 4.7453 18.1875 5.125 18.1875H18.875C19.2547 18.1875 19.5625 17.8797 19.5625 17.5V14.0625C19.5625 13.6828 19.2547 13.375 18.875 13.375Z" />
            <path d="M18.875 5.8125H5.125C4.7453 5.8125 4.4375 6.1203 4.4375 6.5V9.9375C4.4375 10.3172 4.7453 10.625 5.125 10.625H18.875C19.2547 10.625 19.5625 10.3172 19.5625 9.9375V6.5C19.5625 6.1203 19.2547 5.8125 18.875 5.8125Z" />
        </symbol>

        <symbol id="scissors" viewBox="0 0 24 24">
            <path d="M6.15625 9.9375C7.48519 9.9375 8.5625 8.86019 8.5625 7.53125C8.5625 6.20231 7.48519 5.125 6.15625 5.125C4.82731 5.125 3.75 6.20231 3.75 7.53125C3.75 8.86019 4.82731 9.9375 6.15625 9.9375Z" />
            <path d="M6.15625 18.875C7.48519 18.875 8.5625 17.7977 8.5625 16.4688C8.5625 15.1398 7.48519 14.0625 6.15625 14.0625C4.82731 14.0625 3.75 15.1398 3.75 16.4688C3.75 17.7977 4.82731 18.875 6.15625 18.875Z" />
            <path d="M12.6874 12L8.14185 15.1101" />
            <path d="M20.9378 6.35522L15.1228 10.3339" />
            <path d="M20.9374 17.6448L8.14185 8.88989" />
        </symbol>

        <symbol id="share" viewBox="0 0 24 24">
            <path d="M16.125 14.0625L20.25 9.9375L16.125 5.8125" />
            <path d="M17.5 19.5625H4.4375C4.25516 19.5625 4.0803 19.4901 3.95136 19.3611C3.82243 19.2322 3.75 19.0573 3.75 18.875V8.5625" />
            <path d="M7.44751 16.125C7.90539 14.354 8.93861 12.7853 10.3848 11.6654C11.8311 10.5454 13.6084 9.93764 15.4376 9.9375H20.2501" />
        </symbol>

        <symbol id="share-network" viewBox="0 0 24 24">
            <path d="M6.5 14.75C8.01878 14.75 9.25 13.5188 9.25 12C9.25 10.4812 8.01878 9.25 6.5 9.25C4.98122 9.25 3.75 10.4812 3.75 12C3.75 13.5188 4.98122 14.75 6.5 14.75Z" />
            <path d="M16.125 20.9375C17.6438 20.9375 18.875 19.7063 18.875 18.1875C18.875 16.6687 17.6438 15.4375 16.125 15.4375C14.6062 15.4375 13.375 16.6687 13.375 18.1875C13.375 19.7063 14.6062 20.9375 16.125 20.9375Z" />
            <path d="M16.125 8.5625C17.6438 8.5625 18.875 7.33128 18.875 5.8125C18.875 4.29372 17.6438 3.0625 16.125 3.0625C14.6062 3.0625 13.375 4.29372 13.375 5.8125C13.375 7.33128 14.6062 8.5625 16.125 8.5625Z" />
            <path d="M13.8118 7.29956L8.81274 10.5133" />
            <path d="M8.81274 13.4868L13.8118 16.7005" />
        </symbol>

        <symbol id="sign-in" viewBox="0 0 24 24">
            <path d="M9.0791 15.6094L12.6875 12L9.0791 8.39062" />
            <path d="M3.0625 12H12.685" />
            <path d="M12.6877 4.4375H17.5002C17.6826 4.4375 17.8574 4.50993 17.9864 4.63886C18.1153 4.7678 18.1877 4.94266 18.1877 5.125V18.875C18.1877 19.0573 18.1153 19.2322 17.9864 19.3611C17.8574 19.4901 17.6826 19.5625 17.5002 19.5625H12.6877" />
        </symbol>

        <symbol id="sign-out" viewBox="0 0 24 24">
            <path d="M15.9541 8.39062L19.5625 12L15.9541 15.6094" />
            <path d="M9.9375 12H19.56" />
            <path d="M9.9375 19.5625H5.125C4.94266 19.5625 4.7678 19.4901 4.63886 19.3611C4.50993 19.2322 4.4375 19.0573 4.4375 18.875V5.125C4.4375 4.94266 4.50993 4.7678 4.63886 4.63886C4.7678 4.50993 4.94266 4.4375 5.125 4.4375H9.9375" />
        </symbol>

        <symbol id="" viewBox="0 0 24 24">
        </symbol>

        <symbol id="squares-four" viewBox="0 0 24 24">
            <path d="M10.625 5.125H5.125V10.625H10.625V5.125Z" />
            <path d="M18.875 5.125H13.375V10.625H18.875V5.125Z" />
            <path d="M10.625 13.375H5.125V18.875H10.625V13.375Z" />
            <path d="M18.875 13.375H13.375V18.875H18.875V13.375Z" />
        </symbol>

        <symbol id="star" viewBox="0 0 24 24">
            <path d="M12.3791 17.3911L16.7134 20.1371C17.2674 20.4881 17.9553 19.9661 17.7909 19.3194L16.5386 14.3932C16.5033 14.256 16.5075 14.1116 16.5507 13.9767C16.5938 13.8418 16.6741 13.7217 16.7825 13.6304L20.6692 10.3955C21.1799 9.97039 20.9163 9.12283 20.2601 9.08024L15.1843 8.75082C15.0476 8.74105 14.9165 8.69265 14.8062 8.61124C14.6959 8.52984 14.6111 8.41878 14.5615 8.291L12.6684 3.52379C12.617 3.38817 12.5255 3.27141 12.4061 3.18902C12.2867 3.10663 12.1451 3.0625 12 3.0625C11.8549 3.0625 11.7133 3.10663 11.5939 3.18902C11.4746 3.27141 11.3831 3.38817 11.3316 3.52379L9.43854 8.291C9.38894 8.41878 9.30406 8.52984 9.19379 8.61124C9.08351 8.69265 8.95238 8.74105 8.81567 8.75082L3.73986 9.08024C3.08372 9.12283 2.82013 9.97039 3.33083 10.3955L7.21755 13.6304C7.32587 13.7217 7.40621 13.8418 7.44935 13.9767C7.49249 14.1116 7.49667 14.256 7.4614 14.3932L6.30006 18.9617C6.10278 19.7377 6.92822 20.3642 7.59306 19.943L11.6209 17.3911C11.7342 17.319 11.8657 17.2807 12 17.2807C12.1343 17.2807 12.2658 17.319 12.3791 17.3911V17.3911Z" />
        </symbol>

        <symbol id="trash" viewBox="0 0 24 24">
            <path d="M19.5623 5.8125L4.43726 5.8125" />
            <path d="M9.9375 9.9375V15.4375" />
            <path d="M14.0625 9.9375V15.4375" />
            <path d="M18.1875 5.8125V18.875C18.1875 19.0573 18.1151 19.2322 17.9861 19.3611C17.8572 19.4901 17.6823 19.5625 17.5 19.5625H6.5C6.31766 19.5625 6.1428 19.4901 6.01386 19.3611C5.88493 19.2322 5.8125 19.0573 5.8125 18.875V5.8125" />
            <path d="M15.4375 5.8125V4.4375C15.4375 4.07283 15.2926 3.72309 15.0348 3.46523C14.7769 3.20737 14.4272 3.0625 14.0625 3.0625H9.9375C9.57283 3.0625 9.22309 3.20737 8.96523 3.46523C8.70737 3.72309 8.5625 4.07283 8.5625 4.4375V5.8125" />
        </symbol>

        <symbol id="upload" viewBox="0 0 24 24">
            <path d="M8.39062 8.04593L12 4.4375L15.6094 8.04593" />
            <path d="M12 14.0627V4.44019" />
            <path d="M19.5625 14.0625V18.875C19.5625 19.0573 19.4901 19.2322 19.3611 19.3611C19.2322 19.4901 19.0573 19.5625 18.875 19.5625H5.125C4.94266 19.5625 4.7678 19.4901 4.63886 19.3611C4.50993 19.2322 4.4375 19.0573 4.4375 18.875V14.0625" />
        </symbol>

        <symbol id="user" viewBox="0 0 24 24">
            <path d="M12 14.75C15.0376 14.75 17.5 12.2876 17.5 9.25C17.5 6.21243 15.0376 3.75 12 3.75C8.96243 3.75 6.5 6.21243 6.5 9.25C6.5 12.2876 8.96243 14.75 12 14.75Z" />
            <path d="M3.66309 19.5617C4.50833 18.0987 5.72371 16.8838 7.18711 16.0392C8.65052 15.1946 10.3104 14.75 12.0001 14.75C13.6897 14.75 15.3496 15.1947 16.813 16.0393C18.2764 16.8839 19.4917 18.0988 20.3369 19.5619" />
        </symbol>

        <symbol id="user-plus" viewBox="0 0 24 24">
            <path d="M18.1875 12.6875H22.3125" />
            <path d="M20.25 10.625V14.75" />
            <path d="M10.2812 14.75C13.129 14.75 15.4375 12.4415 15.4375 9.59375C15.4375 6.74603 13.129 4.4375 10.2812 4.4375C7.43353 4.4375 5.125 6.74603 5.125 9.59375C5.125 12.4415 7.43353 14.75 10.2812 14.75Z" />
            <path d="M2.9082 18.1873C3.81169 17.1109 4.93993 16.2454 6.21364 15.6515C7.48736 15.0577 8.87565 14.75 10.281 14.75C11.6863 14.75 13.0746 15.0577 14.3483 15.6516C15.622 16.2454 16.7503 17.1109 17.6538 18.1874" />
        </symbol>

        <symbol id="users" viewBox="0 0 24 24">
            <path d="M8.5625 14.75C11.0305 14.75 13.0312 12.7493 13.0312 10.2812C13.0312 7.81323 11.0305 5.8125 8.5625 5.8125C6.09448 5.8125 4.09375 7.81323 4.09375 10.2812C4.09375 12.7493 6.09448 14.75 8.5625 14.75Z" />
            <path d="M14.3552 5.97901C14.9699 5.80583 15.6145 5.76638 16.2457 5.86331C16.8768 5.96024 17.4799 6.19131 18.0143 6.54094C18.5486 6.89057 19.0018 7.35065 19.3434 7.89019C19.685 8.42973 19.907 9.0362 19.9944 9.66876C20.0819 10.3013 20.0327 10.9453 19.8504 11.5572C19.668 12.1692 19.3566 12.735 18.9371 13.2165C18.5177 13.698 17.9999 14.084 17.4187 14.3485C16.8375 14.6131 16.2063 14.75 15.5678 14.75" />
            <path d="M2.375 17.9638C3.07293 16.971 3.99947 16.1608 5.0764 15.6014C6.15333 15.0421 7.34904 14.75 8.56257 14.75C9.7761 14.75 10.9718 15.0419 12.0488 15.6012C13.1258 16.1604 14.0524 16.9706 14.7504 17.9633" />
            <path d="M15.5679 14.75C16.7815 14.7491 17.9775 15.0407 19.0546 15.6C20.1316 16.1594 21.058 16.97 21.7554 17.9633" />
        </symbol>

        <symbol id="users-three" viewBox="0 0 24 24">
            <path d="M12 16.4688C13.8985 16.4688 15.4375 14.9297 15.4375 13.0312C15.4375 11.1328 13.8985 9.59375 12 9.59375C10.1015 9.59375 8.5625 11.1328 8.5625 13.0312C8.5625 14.9297 10.1015 16.4688 12 16.4688Z" />
            <path d="M17.8438 10.9688C18.6443 10.9681 19.434 11.1541 20.1501 11.5121C20.8662 11.8701 21.4889 12.3901 21.9688 13.0309" />
            <path d="M2.03101 13.0311C2.51092 12.3902 3.13367 11.8702 3.84978 11.5122C4.5659 11.1541 5.35563 10.9681 6.15625 10.9688" />
            <path d="M7.05298 19.5624C7.5046 18.6348 8.20792 17.8529 9.08266 17.3058C9.9574 16.7588 10.9683 16.4688 12 16.4688C13.0317 16.4687 14.0426 16.7588 14.9174 17.3058C15.7921 17.8529 16.4954 18.6348 16.9471 19.5624" />
            <path d="M6.15623 10.9688C5.63445 10.9687 5.12346 10.8201 4.68294 10.5405C4.24242 10.2608 3.89055 9.86165 3.66841 9.38952C3.44627 8.91739 3.36303 8.3918 3.42842 7.87414C3.4938 7.35647 3.70512 6.86809 4.03768 6.46602C4.37023 6.06395 4.81032 5.76479 5.30654 5.60348C5.80275 5.44216 6.33462 5.42535 6.84004 5.55499C7.34546 5.68464 7.80356 5.9554 8.16085 6.33566C8.51815 6.71591 8.75989 7.18997 8.85784 7.70247" />
            <path d="M15.1421 7.7025C15.24 7.18992 15.4817 6.71577 15.839 6.33543C16.1963 5.95509 16.6545 5.68425 17.16 5.55456C17.6654 5.42486 18.1974 5.44165 18.6937 5.60297C19.19 5.76429 19.6301 6.06348 19.9627 6.4656C20.2953 6.86772 20.5067 7.35616 20.572 7.8739C20.6374 8.39164 20.5542 8.91729 20.332 9.38948C20.1098 9.86166 19.7578 10.2609 19.3172 10.5405C18.8766 10.8202 18.3656 10.9687 17.8437 10.9687" />
        </symbol>

        <symbol id="video-camera" viewBox="0 0 24 24">
            <path d="M3.0625 6.15625H14.0625C14.7918 6.15625 15.4913 6.44598 16.007 6.96171C16.5228 7.47743 16.8125 8.1769 16.8125 8.90625V17.1562C16.8125 17.3386 16.7401 17.5135 16.6111 17.6424C16.4822 17.7713 16.3073 17.8438 16.125 17.8438H5.125C4.39565 17.8438 3.69618 17.554 3.18046 17.0383C2.66473 16.5226 2.375 15.8231 2.375 15.0938V6.84375C2.375 6.66141 2.44743 6.48655 2.57636 6.35761C2.7053 6.22868 2.88016 6.15625 3.0625 6.15625V6.15625Z" />
            <path d="M16.8125 10.625L21.625 7.875V16.125L16.8125 13.375" />
        </symbol>

        <symbol id="warning" viewBox="0 0 24 24">
            <path d="M12 9.9375V13.375" />
            <path d="M10.8101 4.43619L3.24967 17.498C3.1287 17.707 3.0649 17.9442 3.0647 18.1857C3.0645 18.4272 3.1279 18.6645 3.24853 18.8737C3.36916 19.0829 3.54277 19.2566 3.75187 19.3774C3.96098 19.4982 4.19821 19.5618 4.4397 19.5618H19.5606C19.8021 19.5618 20.0393 19.4982 20.2484 19.3774C20.4576 19.2566 20.6312 19.0829 20.7518 18.8737C20.8724 18.6645 20.9358 18.4272 20.9356 18.1857C20.9354 17.9442 20.8716 17.707 20.7506 17.498L13.1902 4.43619C13.0694 4.22752 12.8959 4.05427 12.687 3.93384C12.4781 3.8134 12.2413 3.75 12.0002 3.75C11.7591 3.75 11.5222 3.8134 11.3133 3.93384C11.1044 4.05427 10.9309 4.22752 10.8101 4.43619V4.43619Z" />
            <path d="M12 17.5C12.5695 17.5 13.0312 17.0383 13.0312 16.4688C13.0312 15.8992 12.5695 15.4375 12 15.4375C11.4305 15.4375 10.9688 15.8992 10.9688 16.4688C10.9688 17.0383 11.4305 17.5 12 17.5Z" />
        </symbol>

        <symbol id="" viewBox="0 0 24 24">
        </symbol>
    </defs>
</svg>

